# xmcd CD database file
#
# Track frame offsets:
#	150
#	10312
#	37612
#	50977
#	61935
#	79437
#	96565
#	112205
#	130660
#	150942
#	161460
#	179270
#
# Disc length: 2667 seconds
#
# Revision: 0
# Processed by: cddbd v1.5.1PL0 Copyright (c) Steve Scherf et al.
# Submitted via: CDex 1.51
#
DISCID=980a690c
DTITLE=Paramount Trio - Step It Up and Go
DYEAR=1900
DGENRE=Blues
TTITLE0=Step It Up and Go
TTITLE1=Mean Red Spider
TTITLE2=Don't Think I'm Santa Claus
TTITLE3=Smokestack Lightning
TTITLE4=Poor Boy
TTITLE5=Nothing But The Devil
TTITLE6=How Long
TTITLE7=Mighty Long Time
TTITLE8=No Matter How She Done It
TTITLE9=Mean Old Train
TTITLE10=Jitterbug Swing
TTITLE11=Tin Pan Alley
EXTD=
EXTT0=
EXTT1=
EXTT2=
EXTT3=
EXTT4=
EXTT5=
EXTT6=
EXTT7=
EXTT8=
EXTT9=
EXTT10=
EXTT11=
PLAYORDER=
